# xmcd CD database file
#
# Track frame offsets:
#	150
#	16784
#	35003
#	58863
#	80879
#	102864
#	122326
#	146194
#	161077
#	182949
#
# Disc length: 2698 seconds
#
# Revision: 0
# Processed by: cddbd v1.5.1PL2 Copyright (c) Steve Scherf et al.
# Submitted via: CDex 1.50
#
DISCID=8a0a880a
DTITLE=Distance - Don't Look Back
DYEAR=2005
DGENRE=Country
TTITLE0=You And I
TTITLE1=Downside
TTITLE2=Waiting
TTITLE3=My Life
TTITLE4=Lazy Sunday
TTITLE5=Don't Look Back
TTITLE6=This Day
TTITLE7=This Land
TTITLE8=Signs
TTITLE9=Get A Little Dirt On Your Hands
EXTD=YEAR: 2005
EXTT0=
EXTT1=
EXTT2=
EXTT3=
EXTT4=
EXTT5=
EXTT6=
EXTT7=
EXTT8=
EXTT9=
PLAYORDER=
